<?xml version="1.0" encoding="iso-8859-1"?>
<?xml-stylesheet type="text/css" href="../css/style.css"?>
<!-- Generator: Adobe Illustrator 19.0.0, SVG Export Plug-In . SVG Version: 6.00 Build 0)  -->
<svg version="1.1" id="Capa_1" xmlns="http://www.w3.org/2000/svg" xmlns:xlink="http://www.w3.org/1999/xlink" x="0px" y="0px"
	 viewBox="0 0 512 512" style="enable-background:new 0 0 512 512;" xml:space="preserve">
<g>
	<g>
		<path fill="#ffffff" d="M102.4,230.4v128c0,84.48,69.12,153.6,153.6,153.6s153.6-69.12,153.6-153.6v-128H102.4z"/>
	</g>
</g>
<g>
	<g>
		<path class="mouse-click" d="M217.6,51.2h12.8V0c-35.84,0-66.56,15.36-89.6,38.4c-23.04,23.04-38.4,53.76-38.4,89.6v51.2h128v-35.84h-12.8
			c-7.68,0-12.8-5.12-12.8-12.8V64C204.8,56.32,209.92,51.2,217.6,51.2z"/>
	</g>
</g>
<g>
	<g>
		<path fill="#ffffff" d="M371.2,38.4C348.16,15.36,317.44,0,281.6,0v51.2h12.8c7.68,0,12.8,5.12,12.8,12.8v66.56c0,7.68-5.12,12.8-12.8,12.8h-12.8
			v35.84h128V128C409.6,92.16,394.24,61.44,371.2,38.4z"/>
	</g>
</g>
<g>
</g>
<g>
</g>
<g>
</g>
<g>
</g>
<g>
</g>
<g>
</g>
<g>
</g>
<g>
</g>
<g>
</g>
<g>
</g>
<g>
</g>
<g>
</g>
<g>
</g>
<g>
</g>
<g>
</g>
</svg>
